<svg xmlns="http://www.w3.org/2000/svg" xmlns:xlink="http://www.w3.org/1999/xlink" version="1.1" class="marks" width="75%" viewBox="0 0 620 280" style="background-color: white; margin-left: auto; margin-right: auto; display: block;"><g fill="none" stroke-miterlimit="10" transform="translate(55,28)"><g class="mark-group role-frame root" role="graphics-object" aria-roledescription="group mark container"><g transform="translate(0,0)"><path class="background" aria-hidden="true" d="M0,0h500v230h-500Z" fill="transparent"/><g><g class="mark-group role-axis" aria-hidden="true"><g transform="translate(0.5,230.5)"><path class="background" aria-hidden="true" d="M0,0h0v0h0Z" pointer-events="none"/><g><g class="mark-rule role-axis-grid" pointer-events="none"><line transform="translate(68,-230)" x2="0" y2="230" stroke="#CCC" stroke-width="1" opacity="1"/><line transform="translate(140,-230)" x2="0" y2="230" stroke="#CCC" stroke-width="1" opacity="1"/><line transform="translate(211,-230)" x2="0" y2="230" stroke="#CCC" stroke-width="1" opacity="1"/><line transform="translate(283,-230)" x2="0" y2="230" stroke="#CCC" stroke-width="1" opacity="1"/><line transform="translate(354,-230)" x2="0" y2="230" stroke="#CCC" stroke-width="1" opacity="1"/><line transform="translate(426,-230)" x2="0" y2="230" stroke="#CCC" stroke-width="1" opacity="1"/></g></g><path class="foreground" aria-hidden="true" d="" pointer-events="none" display="none"/></g></g><g class="mark-group role-axis" aria-hidden="true"><g transform="translate(0.5,0.5)"><path class="background" aria-hidden="true" d="M0,0h0v0h0Z" pointer-events="none"/><g><g class="mark-rule role-axis-grid" pointer-events="none"><line transform="translate(0,230)" x2="500" y2="0" stroke="#CCC" stroke-width="1" opacity="1"/><line transform="translate(0,197)" x2="500" y2="0" stroke="#CCC" stroke-width="1" opacity="1"/><line transform="translate(0,164)" x2="500" y2="0" stroke="#CCC" stroke-width="1" opacity="1"/><line transform="translate(0,131)" x2="500" y2="0" stroke="#CCC" stroke-width="1" opacity="1"/><line transform="translate(0,99)" x2="500" y2="0" stroke="#CCC" stroke-width="1" opacity="1"/><line transform="translate(0,66)" x2="500" y2="0" stroke="#CCC" stroke-width="1" opacity="1"/><line transform="translate(0,33)" x2="500" y2="0" stroke="#CCC" stroke-width="1" opacity="1"/><line transform="translate(0,0)" x2="500" y2="0" stroke="#CCC" stroke-width="1" opacity="1"/></g></g><path class="foreground" aria-hidden="true" d="" pointer-events="none" display="none"/></g></g><g class="mark-group role-axis" role="graphics-symbol" aria-roledescription="axis" aria-label="X-axis for a linear scale with values from 1 to 169"><g transform="translate(0.5,230.5)"><path class="background" aria-hidden="true" d="M0,0h0v0h0Z" pointer-events="none"/><g><g class="mark-rule role-axis-tick" pointer-events="none"><line transform="translate(68,0)" x2="0" y2="12" stroke="#CCC" stroke-width="1" opacity="1"/><line transform="translate(140,0)" x2="0" y2="12" stroke="#CCC" stroke-width="1" opacity="1"/><line transform="translate(211,0)" x2="0" y2="12" stroke="#CCC" stroke-width="1" opacity="1"/><line transform="translate(283,0)" x2="0" y2="12" stroke="#CCC" stroke-width="1" opacity="1"/><line transform="translate(354,0)" x2="0" y2="12" stroke="#CCC" stroke-width="1" opacity="1"/><line transform="translate(426,0)" x2="0" y2="12" stroke="#CCC" stroke-width="1" opacity="1"/></g><g class="mark-rule role-axis-domain" pointer-events="none"><line transform="translate(0,0)" x2="500" y2="0" stroke="#666" stroke-width="1" opacity="1"/></g></g><path class="foreground" aria-hidden="true" d="" pointer-events="none" display="none"/></g></g><g class="mark-group role-axis" role="graphics-symbol" aria-roledescription="axis" aria-label="Y-axis titled '# Trips' for a linear scale with values from 0.0 to 700k"><g transform="translate(0.5,0.5)"><path class="background" aria-hidden="true" d="M0,0h0v0h0Z" pointer-events="none"/><g><g class="mark-rule role-axis-tick" pointer-events="none"><line transform="translate(0,230)" x2="0" y2="0" stroke="#CCC" stroke-width="1" opacity="1"/><line transform="translate(0,197)" x2="0" y2="0" stroke="#CCC" stroke-width="1" opacity="1"/><line transform="translate(0,164)" x2="0" y2="0" stroke="#CCC" stroke-width="1" opacity="1"/><line transform="translate(0,131)" x2="0" y2="0" stroke="#CCC" stroke-width="1" opacity="1"/><line transform="translate(0,99)" x2="0" y2="0" stroke="#CCC" stroke-width="1" opacity="1"/><line transform="translate(0,66)" x2="0" y2="0" stroke="#CCC" stroke-width="1" opacity="1"/><line transform="translate(0,33)" x2="0" y2="0" stroke="#CCC" stroke-width="1" opacity="1"/><line transform="translate(0,0)" x2="0" y2="0" stroke="#CCC" stroke-width="1" opacity="1"/></g><g class="mark-text role-axis-label" pointer-events="none"><text text-anchor="end" transform="translate(-6,234)" font-family="Helvetica Neue" font-size="12px" fill="#333" opacity="1">0.0</text><text text-anchor="end" transform="translate(-6,201.14285714285717)" font-family="Helvetica Neue" font-size="12px" fill="#333" opacity="1">100k</text><text text-anchor="end" transform="translate(-6,168.28571428571428)" font-family="Helvetica Neue" font-size="12px" fill="#333" opacity="1">200k</text><text text-anchor="end" transform="translate(-6,135.42857142857142)" font-family="Helvetica Neue" font-size="12px" fill="#333" opacity="1">300k</text><text text-anchor="end" transform="translate(-6,102.57142857142858)" font-family="Helvetica Neue" font-size="12px" fill="#333" opacity="1">400k</text><text text-anchor="end" transform="translate(-6,69.71428571428571)" font-family="Helvetica Neue" font-size="12px" fill="#333" opacity="1">500k</text><text text-anchor="end" transform="translate(-6,36.85714285714287)" font-family="Helvetica Neue" font-size="12px" fill="#333" opacity="1">600k</text><text text-anchor="end" transform="translate(-6,4)" font-family="Helvetica Neue" font-size="12px" fill="#333" opacity="1">700k</text></g><g class="mark-text role-axis-title" pointer-events="none"><text text-anchor="middle" transform="translate(-36.24399948120117,115) rotate(-90) translate(0,-3)" font-family="Helvetica Neue" font-size="13px" font-weight="400" fill="#333" opacity="1"># Trips</text></g></g><path class="foreground" aria-hidden="true" d="" pointer-events="none" display="none"/></g></g><g class="mark-group role-axis" role="graphics-symbol" aria-roledescription="axis" aria-label="X-axis for a linear scale with values from 1 to 169"><g transform="translate(0.5,230.5)"><path class="background" aria-hidden="true" d="M0,0h0v0h0Z" pointer-events="none"/><g><g class="mark-rule role-axis-tick" pointer-events="none"><line transform="translate(33,0)" x2="0" y2="0" stroke="#CCC" stroke-width="1" opacity="1"/><line transform="translate(104,0)" x2="0" y2="0" stroke="#CCC" stroke-width="1" opacity="1"/><line transform="translate(176,0)" x2="0" y2="0" stroke="#CCC" stroke-width="1" opacity="1"/><line transform="translate(247,0)" x2="0" y2="0" stroke="#CCC" stroke-width="1" opacity="1"/><line transform="translate(318,0)" x2="0" y2="0" stroke="#CCC" stroke-width="1" opacity="1"/><line transform="translate(390,0)" x2="0" y2="0" stroke="#CCC" stroke-width="1" opacity="1"/><line transform="translate(461,0)" x2="0" y2="0" stroke="#CCC" stroke-width="1" opacity="1"/><line transform="translate(33,0)" x2="0" y2="0" stroke="#CCC" stroke-width="1" opacity="1"/></g><g class="mark-text role-axis-label" pointer-events="none"><text text-anchor="middle" transform="translate(32.73809523809524,15)" font-family="Helvetica Neue" font-size="12px" fill="#333" opacity="1">Mon</text><text text-anchor="middle" transform="translate(104.16666666666667,15)" font-family="Helvetica Neue" font-size="12px" fill="#333" opacity="1">Tue</text><text text-anchor="middle" transform="translate(175.59523809523807,15)" font-family="Helvetica Neue" font-size="12px" fill="#333" opacity="1">Wed</text><text text-anchor="middle" transform="translate(247.02380952380955,15)" font-family="Helvetica Neue" font-size="12px" fill="#333" opacity="1">Thu</text><text text-anchor="middle" transform="translate(318.4523809523809,15)" font-family="Helvetica Neue" font-size="12px" fill="#333" opacity="1">Fri</text><text text-anchor="middle" transform="translate(389.8809523809524,15)" font-family="Helvetica Neue" font-size="12px" fill="#333" opacity="1">Sat</text><text text-anchor="middle" transform="translate(461.30952380952385,15)" font-family="Helvetica Neue" font-size="12px" fill="#333" opacity="1">Sun</text><text text-anchor="middle" transform="translate(0,15)" font-family="Helvetica Neue" font-size="12px" fill="#333" opacity="1"/></g><g class="mark-rule role-axis-domain" pointer-events="none"><line transform="translate(0,0)" x2="500" y2="0" stroke="#666" stroke-width="1" opacity="1"/></g></g><path class="foreground" aria-hidden="true" d="" pointer-events="none" display="none"/></g></g><g class="mark-group role-scope pathgroup" role="graphics-object" aria-roledescription="group mark container"><g transform="translate(0,0)"><path class="background" aria-hidden="true" d="M0,0h500v230h-500Z"/><g><g class="mark-line role-mark marks" role="graphics-object" aria-roledescription="line mark container"><path aria-label="order: 1; trips: 86k; year: 2020" role="graphics-symbol" aria-roledescription="line mark" d="M0,201.6442857142857L2.976190476190476,212.63992857142858L5.952380952380952,217.52085714285712L8.928571428571429,212.05868571428573L11.904761904761903,203.21551428571428L14.88095238095238,186.8828857142857L17.857142857142858,141.92215714285712L20.833333333333332,91.61557142857144L23.809523809523807,46.489900000000006L26.785714285714285,16.53535714285713L29.76190476190476,48.742257142857156L32.73809523809524,73.43637142857143L35.714285714285715,72.70891428571427L38.69047619047619,70.23444285714285L41.666666666666664,65.69851428571428L44.642857142857146,50.89571428571429L47.61904761904761,27.188957142857138L50.595238095238095,20.457842857142865L53.57142857142857,14.271171428571435L56.54761904761905,46.02661428571429L59.52380952380952,104.76729999999999L62.5,146.31088571428572L65.47619047619048,165.56024285714284L68.45238095238096,178.34035714285713L71.42857142857143,186.51718571428572L74.4047619047619,186.3151142857143L77.38095238095238,202.5669142857143L80.35714285714286,221.02408571428572L83.33333333333333,200.6056714285714L86.30952380952381,192.9345142857143L89.28571428571429,140.63152857142856L92.26190476190477,87.13812857142857L95.23809523809523,39.19857142857141L98.21428571428571,4.701857142857132L101.19047619047619,45.35600000000001L104.16666666666667,70.76541428571429L107.14285714285714,70.25908571428572L110.11904761904762,67.52931428571428L113.0952380952381,64.61882857142857L116.07142857142857,47.41909999999999L119.04761904761904,23.73238571428572L122.02380952380952,13.544699999999999L125,9.617285714285709L127.97619047619047,31.909871428571417L130.95238095238096,95.34354285714285L133.92857142857142,131.01292857142855L136.90476190476193,159.79874285714286L139.88095238095238,175.33918571428572L142.85714285714286,191.89261428571427L145.83333333333334,208.2581L148.8095238095238,214.65637142857145L151.78571428571428,220.69650000000001L154.76190476190476,199.49805714285714L157.73809523809524,191.46842857142857L160.71428571428572,144.08875714285716L163.6904761904762,89.19531428571429L166.66666666666666,37.933571428571426L169.64285714285714,3.828514285714281L172.61904761904762,39.37369999999999L175.59523809523807,69.54312857142857L178.57142857142858,70.81075714285716L181.54761904761904,65.06469999999999L184.52380952380955,60.85701428571428L187.5,42.78032857142856L190.47619047619045,19.184628571428572L193.45238095238096,10.177171428571425L196.42857142857142,4.680171428571418L199.40476190476193,21.626571428571435L202.38095238095238,88.7353142857143L205.35714285714286,133.35334285714288L208.33333333333334,156.8222142857143L211.3095238095238,166.58801428571428L214.28571428571428,191.87618571428573L217.26190476190476,205.3679857142857L220.23809523809524,213.02501428571426L223.21428571428572,220.45237142857144L226.1904761904762,199.11297142857146L229.16666666666666,191.98724285714286L232.14285714285714,146.08515714285713L235.11904761904762,93.16314285714286L238.09523809523807,41.240642857142866L241.07142857142858,3.024171428571422L244.04761904761904,40.82992857142858L247.02380952380955,70.27255714285715L250,71.84904285714286L252.97619047619045,67.8339L255.95238095238093,63.953142857142865L258.92857142857144,43.35368571428572L261.9047619047619,18.884971428571426L264.8809523809524,8.04211428571428L267.85714285714283,5.893914285714278L270.8333333333333,23.585185714285725L273.80952380952385,90.7405857142857L276.7857142857143,133.97302857142856L279.76190476190476,155.22042857142856L282.73809523809524,165.0765857142857L285.7142857142857,186.22804285714284L288.69047619047615,203.7165857142857L291.6666666666667,211.27964285714285L294.64285714285717,214.88801428571426L297.6190476190476,198.71178571428572L300.5952380952381,191.78221428571428L303.57142857142856,149.40274285714287L306.5476190476191,100.81195714285715L309.5238095238095,57.402085714285725L312.5,22.320514285714285L315.4761904761905,48.927242857142865L318.4523809523809,67.59667142857144L321.42857142857144,65.09032857142859L324.4047619047619,51.643214285714286L327.3809523809524,42.580885714285714L330.35714285714283,28.087928571428577L333.3333333333333,19.87561428571428L336.30952380952385,27.01809999999999L339.2857142857143,35.039842857142865L342.26190476190476,58.08354285714287L345.23809523809524,101.13822857142857L348.2142857142857,134.09L351.19047619047615,153.98105714285714L354.1666666666667,160.11252857142858L357.14285714285717,173.91877142857143L360.1190476190476,190.9874L363.0952380952381,199.54504285714287L366.07142857142856,214.07348571428574L369.0476190476191,197.3308L372.0238095238095,206.21504285714283L375,200.84487142857142L377.9761904761905,196.2498L380.9523809523809,183.89485714285715L383.92857142857144,157.04925714285716L386.9047619047619,124.67905714285713L389.8809523809524,99.03504285714286L392.85714285714283,79.22087142857144L395.8333333333333,66.9599L398.80952380952385,56.457442857142865L401.7857142857143,51.6258L404.76190476190476,63.691600000000015L407.73809523809524,76.2059L410.7142857142857,76.30118571428571L413.69047619047615,94.0102L416.6666666666667,124.46614285714287L419.64285714285717,147.59757142857143L422.6190476190476,160.2574285714286L425.5952380952381,164.46577142857143L428.57142857142856,177.16571428571427L431.5476190476191,188.2918L434.5238095238095,195.65015714285713L437.5,221.23568571428572L440.4761904761905,198.49065714285715L443.4523809523809,209.90095714285712L446.42857142857144,208.51372857142857L449.4047619047619,208.09644285714288L452.3809523809524,201.81054285714285L455.35714285714283,186.20898571428572L458.3333333333333,157.7353142857143L461.30952380952385,137.8353857142857L464.2857142857143,124.01337142857142L467.26190476190476,114.25545714285715L470.23809523809524,111.16359999999999L473.2142857142857,109.53027142857141L476.19047619047615,120.14970000000001L479.1666666666667,126.85157142857142L482.14285714285717,133.89614285714285L485.1190476190476,151.29005714285717L488.0952380952381,167.946L491.07142857142856,178.9518285714286L494.0476190476191,187.71121428571428L497.0238095238095,193.2883857142857" stroke="#30a2da" stroke-width="2.5" stroke-linecap="round" stroke-linejoin="round" mix-blend-mode="multiply"/></g></g><path class="foreground" aria-hidden="true" d="" display="none"/></g><g transform="translate(0,0)"><path class="background" aria-hidden="true" d="M0,0h500v230h-500Z"/><g><g class="mark-line role-mark marks" role="graphics-object" aria-roledescription="line mark container"><path aria-label="order: 2; trips: 45k; year: 2021" role="graphics-symbol" aria-roledescription="line mark" d="M2.976190476190476,215.36970000000002L5.952380952380952,221.5093857142857L8.928571428571429,226.60684285714285L11.904761904761903,209.81289999999998L14.88095238095238,197.63275714285714L17.857142857142858,154.42167142857144L20.833333333333332,108.89415714285714L23.809523809523807,68.48644285714286L26.785714285714285,61.110342857142854L29.76190476190476,84.5388L32.73809523809524,94.64302857142859L35.714285714285715,92.95679999999999L38.69047619047619,87.90435714285714L41.666666666666664,80.54632857142856L44.642857142857146,65.32887142857143L47.61904761904761,53.88538571428572L50.595238095238095,55.11752857142857L53.57142857142857,67.99161428571429L56.54761904761905,98.05557142857143L59.52380952380952,147.41422857142857L62.5,176.35874285714286L65.47619047619048,192.1544857142857L68.45238095238096,202.33625714285714L71.42857142857143,211.68378571428573L74.4047619047619,216.98627142857143L77.38095238095238,220.72147142857145L80.35714285714286,226.2188L83.33333333333333,207.25497142857142L86.30952380952381,196.86094285714285L89.28571428571429,153.44154285714285L92.26190476190477,105.79145714285714L95.23809523809523,66.01887142857144L98.21428571428571,59.737242857142846L101.19047619047619,83.41147142857142L104.16666666666667,94.75277142857144L107.14285714285714,91.67504285714284L110.11904761904762,85.02837142857145L113.0952380952381,77.23137142857144L116.07142857142857,60.00667142857143L119.04761904761904,47.0731142857143L122.02380952380952,49.31692857142856L125,61.95082857142857L127.97619047619047,92.01905714285715L130.95238095238096,141.66225714285716L133.92857142857142,173.35165714285714L136.90476190476193,190.44230000000002L139.88095238095238,200.69537142857143L142.85714285714286,210.43324285714286L145.83333333333334,216.58574285714286L148.8095238095238,220.64951428571428L151.78571428571428,226.4422285714286L154.76190476190476,208.0028L157.73809523809524,196.98908571428572L160.71428571428572,154.43382857142856L163.6904761904762,105.91762857142857L166.66666666666666,65.38078571428572L169.64285714285714,58.771571428571434L172.61904761904762,80.23714285714286L175.59523809523807,89.9231L178.57142857142858,85.06845714285714L181.54761904761904,78.32255714285715L184.52380952380955,68.53572857142858L187.5,54.111771428571416L190.47619047619045,44.78691428571428L193.45238095238096,48.54774285714286L196.42857142857142,63.2569L199.40476190476193,94.03977142857144L202.38095238095238,141.01924285714287L205.35714285714286,172.70207142857143L208.33333333333334,188.51687142857142L211.3095238095238,199.0561285714286L214.28571428571428,209.1449142857143L217.26190476190476,215.29182857142857L220.23809523809524,220.0801L223.21428571428572,226.18364285714284L226.1904761904762,206.19927142857142L229.16666666666666,196.0115857142857L232.14285714285714,155.10082857142856L235.11904761904762,107.63014285714286L238.09523809523807,68.1099L241.07142857142858,59.259828571428564L244.04761904761904,78.86108571428571L247.02380952380955,90.24181428571428L250,89.67371428571428L252.97619047619045,84.21778571428571L255.95238095238093,79.14299999999999L258.92857142857144,65.98864285714285L261.9047619047619,55.559457142857156L264.8809523809524,58.77091428571428L267.85714285714283,72.54692857142857L270.8333333333333,97.91362857142856L273.80952380952385,142.0351857142857L276.7857142857143,174.26048571428572L279.76190476190476,190.00004285714283L282.73809523809524,199.43694285714287L285.7142857142857,208.8837L288.69047619047615,215.79322857142859L291.6666666666667,220.10080000000002L294.64285714285717,226.1231857142857L297.6190476190476,206.80877142857142L300.5952380952381,198.47554285714284L303.57142857142856,160.08328571428572L306.5476190476191,116.14572857142858L309.5238095238095,78.8371L312.5,70.55578571428572L315.4761904761905,84.74514285714285L318.4523809523809,86.39161428571428L321.42857142857144,80.64489999999999L324.4047619047619,68.07507142857143L327.3809523809524,60.13481428571428L330.35714285714283,51.94714285714286L333.3333333333333,55.38104285714286L336.30952380952385,68.93855714285714L339.2857142857143,83.74825714285716L342.26190476190476,108.15257142857143L345.23809523809524,143.7992857142857L348.2142857142857,171.70485714285715L351.19047619047615,188.28917142857142L354.1666666666667,196.97397142857142L357.14285714285717,204.89714285714288L360.1190476190476,210.34452857142858L363.0952380952381,215.18668571428572L366.07142857142856,224.25887142857144L369.0476190476191,211.9496L372.0238095238095,214.9294142857143L375,208.3823L377.9761904761905,202.0067L380.9523809523809,190.75772857142857L383.92857142857144,169.35064285714284L386.9047619047619,144.38874285714286L389.8809523809524,123.06478571428573L392.85714285714283,109.64428571428573L395.8333333333333,103.04788571428571L398.80952380952385,99.99249999999999L401.7857142857143,101.26735714285715L404.76190476190476,115.55101428571429L407.73809523809524,128.03278571428572L410.7142857142857,137.17725714285714L413.69047619047615,153.14615714285713L416.6666666666667,172.81082857142857L419.64285714285717,185.3859142857143L422.6190476190476,195.0725285714286L425.5952380952381,199.91895714285712L428.57142857142856,205.1389714285714L431.5476190476191,209.98868571428574L434.5238095238095,214.6143142857143L437.5,224.20728571428572L440.4761904761905,213.61217142857143L443.4523809523809,219.5649L446.42857142857144,217.32207142857143L449.4047619047619,215.2031142857143L452.3809523809524,212.41649999999998L455.35714285714283,203.01475714285715L458.3333333333333,187.2357714285714L461.30952380952385,171.51855714285716L464.2857142857143,159.63675714285714L467.26190476190476,149.70010000000002L470.23809523809524,141.2085L473.2142857142857,139.10235714285713L476.19047619047615,146.395L479.1666666666667,152.77125714285717L482.14285714285717,158.2009L485.1190476190476,171.41308571428573L488.0952380952381,185.15492857142857L491.07142857142856,194.28461428571427L494.0476190476191,200.9625L497.0238095238095,205.55264285714284L500,210.7273142857143" stroke="#fc4f30" stroke-width="2.5" stroke-linecap="round" stroke-linejoin="round" mix-blend-mode="multiply"/></g></g><path class="foreground" aria-hidden="true" d="" display="none"/></g></g><g class="mark-group role-legend" role="graphics-symbol" aria-roledescription="legend" aria-label="Symbol legend titled 'Year' for stroke color with 2 values: 2020, 2021"><g transform="translate(521,0)"><path class="background" aria-hidden="true" d="M0,0h39v40h-39Z" pointer-events="none"/><g><g class="mark-group role-legend-entry"><g transform="translate(0,16)"><path class="background" aria-hidden="true" d="M0,0h0v0h0Z" pointer-events="none"/><g><g class="mark-group role-scope" role="graphics-object" aria-roledescription="group mark container"><g transform="translate(0,0)"><path class="background" aria-hidden="true" d="M0,0h38.24609375v11h-38.24609375Z" pointer-events="none" opacity="1"/><g><g class="mark-symbol role-legend-symbol" pointer-events="none"><path transform="translate(6,6)" d="M-5,0L5,0" fill="transparent" stroke="#30a2da" stroke-width="1.5" opacity="1"/></g><g class="mark-text role-legend-label" pointer-events="none"><text text-anchor="start" transform="translate(16,9)" font-family="sans-serif" font-size="10px" fill="#333" opacity="1">2020</text></g></g><path class="foreground" aria-hidden="true" d="" pointer-events="none" display="none"/></g><g transform="translate(0,13)"><path class="background" aria-hidden="true" d="M0,0h38.24609375v11h-38.24609375Z" pointer-events="none" opacity="1"/><g><g class="mark-symbol role-legend-symbol" pointer-events="none"><path transform="translate(6,6)" d="M-5,0L5,0" fill="transparent" stroke="#fc4f30" stroke-width="1.5" opacity="1"/></g><g class="mark-text role-legend-label" pointer-events="none"><text text-anchor="start" transform="translate(16,9)" font-family="sans-serif" font-size="10px" fill="#333" opacity="1">2021</text></g></g><path class="foreground" aria-hidden="true" d="" pointer-events="none" display="none"/></g></g></g><path class="foreground" aria-hidden="true" d="" pointer-events="none" display="none"/></g></g><g class="mark-text role-legend-title" pointer-events="none"><text text-anchor="start" transform="translate(0,9)" font-family="sans-serif" font-size="11px" font-weight="bold" fill="#333" opacity="1">Year</text></g></g><path class="foreground" aria-hidden="true" d="" pointer-events="none" display="none"/></g></g><g class="mark-group role-title"><g transform="translate(250,-23)"><path class="background" aria-hidden="true" d="M0,0h0v0h0Z" pointer-events="none"/><g><g class="mark-text role-title-text" role="graphics-symbol" aria-roledescription="title" aria-label="Title text 'Weekly Mobility Pattern in Feburary 2020 v. March 2021'" pointer-events="none"><text text-anchor="middle" transform="translate(0,10)" font-family="sans-serif" font-size="13px" font-weight="bold" fill="#333" opacity="1">Weekly Mobility Pattern in Feburary 2020 v. March 2021</text></g></g><path class="foreground" aria-hidden="true" d="" pointer-events="none" display="none"/></g></g></g><path class="foreground" aria-hidden="true" d="" display="none"/></g></g></g></svg>