<svg class="plot plot-wan-destinations" fill="currentColor" text-anchor="middle" width="648" height="400" viewBox="0 0 648 400" xmlns="http://www.w3.org/2000/svg" xmlns:xlink="http://www.w3.org/1999/xlink"><g transform="translate(66,0)" fill="none" text-anchor="end"><g class="tick" opacity="1" transform="translate(0,340.5)"><line stroke="currentColor" x2="-10"/><text fill="currentColor" x="-16" dy="0.32em">0k</text></g><g class="tick" opacity="1" transform="translate(0,314.3333333333333)"><line stroke="currentColor" x2="-10"/><text fill="currentColor" x="-16" dy="0.32em">100k</text></g><g class="tick" opacity="1" transform="translate(0,288.1666666666667)"><line stroke="currentColor" x2="-10"/><text fill="currentColor" x="-16" dy="0.32em">200k</text></g><g class="tick" opacity="1" transform="translate(0,262)"><line stroke="currentColor" x2="-10"/><text fill="currentColor" x="-16" dy="0.32em">300k</text></g><g class="tick" opacity="1" transform="translate(0,235.83333333333334)"><line stroke="currentColor" x2="-10"/><text fill="currentColor" x="-16" dy="0.32em">400k</text></g><g class="tick" opacity="1" transform="translate(0,209.66666666666666)"><line stroke="currentColor" x2="-10"/><text fill="currentColor" x="-16" dy="0.32em">500k</text></g><g class="tick" opacity="1" transform="translate(0,183.5)"><line stroke="currentColor" x2="-10"/><text fill="currentColor" x="-16" dy="0.32em">600k</text></g><g class="tick" opacity="1" transform="translate(0,157.33333333333331)"><line stroke="currentColor" x2="-10"/><text fill="currentColor" x="-16" dy="0.32em">700k</text></g><g class="tick" opacity="1" transform="translate(0,131.16666666666669)"><line stroke="currentColor" x2="-10"/><text fill="currentColor" x="-16" dy="0.32em">800k</text></g><g class="tick" opacity="1" transform="translate(0,105)"><line stroke="currentColor" x2="-10"/><text fill="currentColor" x="-16" dy="0.32em">900k</text></g><g class="tick" opacity="1" transform="translate(0,78.83333333333333)"><line stroke="currentColor" x2="-10"/><text fill="currentColor" x="-16" dy="0.32em">1000k</text></g><g class="tick" opacity="1" transform="translate(0,52.66666666666668)"><line stroke="currentColor" x2="-10"/><text fill="currentColor" x="-16" dy="0.32em">1100k</text></g><g class="tick" opacity="1" transform="translate(0,26.5)"><line stroke="currentColor" x2="-10"/><text fill="currentColor" x="-16" dy="0.32em">1200k</text></g><text fill="currentColor" transform="translate(-58,26)" dy="-1em" text-anchor="start">↑ Sitzkapazität</text></g><g transform="translate(0,370)" fill="none" text-anchor="middle"><g class="tick" opacity="1" transform="translate(80.5,0)"><line stroke="currentColor" y2="8"/><text fill="currentColor" y="14" dy="0.71em">Jan / 20</text></g><g class="tick" opacity="1" transform="translate(108.5,0)"><line stroke="currentColor" y2="8"/><text fill="currentColor" y="14" dy="0.71em"/></g><g class="tick" opacity="1" transform="translate(136.5,0)"><line stroke="currentColor" y2="8"/><text fill="currentColor" y="14" dy="0.71em"/></g><g class="tick" opacity="1" transform="translate(164.5,0)"><line stroke="currentColor" y2="8"/><text fill="currentColor" y="14" dy="0.71em">Apr</text></g><g class="tick" opacity="1" transform="translate(192.5,0)"><line stroke="currentColor" y2="8"/><text fill="currentColor" y="14" dy="0.71em"/></g><g class="tick" opacity="1" transform="translate(220.5,0)"><line stroke="currentColor" y2="8"/><text fill="currentColor" y="14" dy="0.71em"/></g><g class="tick" opacity="1" transform="translate(248.5,0)"><line stroke="currentColor" y2="8"/><text fill="currentColor" y="14" dy="0.71em">Jul</text></g><g class="tick" opacity="1" transform="translate(276.5,0)"><line stroke="currentColor" y2="8"/><text fill="currentColor" y="14" dy="0.71em"/></g><g class="tick" opacity="1" transform="translate(304.5,0)"><line stroke="currentColor" y2="8"/><text fill="currentColor" y="14" dy="0.71em"/></g><g class="tick" opacity="1" transform="translate(332.5,0)"><line stroke="currentColor" y2="8"/><text fill="currentColor" y="14" dy="0.71em">Okt</text></g><g class="tick" opacity="1" transform="translate(360.5,0)"><line stroke="currentColor" y2="8"/><text fill="currentColor" y="14" dy="0.71em"/></g><g class="tick" opacity="1" transform="translate(388.5,0)"><line stroke="currentColor" y2="8"/><text fill="currentColor" y="14" dy="0.71em"/></g><g class="tick" opacity="1" transform="translate(416.5,0)"><line stroke="currentColor" y2="8"/><text fill="currentColor" y="14" dy="0.71em">Jan / 21</text></g><g class="tick" opacity="1" transform="translate(444.5,0)"><line stroke="currentColor" y2="8"/><text fill="currentColor" y="14" dy="0.71em"/></g><g class="tick" opacity="1" transform="translate(472.5,0)"><line stroke="currentColor" y2="8"/><text fill="currentColor" y="14" dy="0.71em"/></g><g class="tick" opacity="1" transform="translate(500.5,0)"><line stroke="currentColor" y2="8"/><text fill="currentColor" y="14" dy="0.71em">Apr</text></g><g class="tick" opacity="1" transform="translate(528.5,0)"><line stroke="currentColor" y2="8"/><text fill="currentColor" y="14" dy="0.71em"/></g><g class="tick" opacity="1" transform="translate(556.5,0)"><line stroke="currentColor" y2="8"/><text fill="currentColor" y="14" dy="0.71em"/></g><g class="tick" opacity="1" transform="translate(584.5,0)"><line stroke="currentColor" y2="8"/><text fill="currentColor" y="14" dy="0.71em">Jul</text></g><g class="tick" opacity="1" transform="translate(612.5,0)"><line stroke="currentColor" y2="8"/><text fill="currentColor" y="14" dy="0.71em"/></g></g><g><g transform="translate(68,0)"><g transform="translate(0.5,0.5)"><circle cx="12.5" cy="121.41675" r="12" fill="#bd1550" style="mix-blend-mode: multiply;"/><circle cx="12.5" cy="162.69257333333334" r="12" fill="#bd1550" style="mix-blend-mode: multiply;"/><circle cx="12.5" cy="182.35002" r="12" fill="#bd1550" style="mix-blend-mode: multiply;"/><circle cx="12.499999999999455" cy="201.20561416670205" r="12" fill="seagreen" style="mix-blend-mode: multiply;"/><circle cx="12.500000000000545" cy="216.11873249996458" r="12" fill="dodgerblue" style="mix-blend-mode: multiply;"/></g><g fill="white" transform="translate(0.5,0.5)"><text dy="0.32em" x="12.5" y="121.41675">ES</text><text dy="0.32em" x="12.5" y="162.69257333333334">GB</text><text dy="0.32em" x="12.5" y="182.35002">IT</text><text dy="0.32em" x="12.499999999999455" y="201.20561416670205">TR</text><text dy="0.32em" x="12.500000000000545" y="216.11873249996458">US</text></g></g><g transform="translate(96,0)"><g transform="translate(0.5,0.5)"><circle cx="12.5" cy="113.59658000000002" r="12" fill="#bd1550" style="mix-blend-mode: multiply;"/><circle cx="12.5" cy="158.54672666666664" r="12" fill="#bd1550" style="mix-blend-mode: multiply;"/><circle cx="12.5" cy="178.74163666666664" r="12" fill="#bd1550" style="mix-blend-mode: multiply;"/><circle cx="12.49999999999818" cy="212.7181625000553" r="12" fill="seagreen" style="mix-blend-mode: multiply;"/><circle cx="12.50000000000182" cy="229.27245416661137" r="12" fill="dodgerblue" style="mix-blend-mode: multiply;"/></g><g fill="white" transform="translate(0.5,0.5)"><text dy="0.32em" x="12.5" y="113.59658000000002">ES</text><text dy="0.32em" x="12.5" y="158.54672666666664">GB</text><text dy="0.32em" x="12.5" y="178.74163666666664">IT</text><text dy="0.32em" x="12.49999999999818" y="212.7181625000553">TR</text><text dy="0.32em" x="12.50000000000182" y="229.27245416661137">US</text></g></g><g transform="translate(124,0)"><g transform="translate(0.5,0.5)"><circle cx="12.499999999996191" cy="261.9047417186809" r="12" fill="#bd1550" style="mix-blend-mode: multiply;"/><circle cx="12.5" cy="134.64557" r="12" fill="#bd1550" style="mix-blend-mode: multiply;"/><circle cx="12.5" cy="197.43484166666664" r="12" fill="#bd1550" style="mix-blend-mode: multiply;"/><circle cx="12.500000000004357" cy="245.6857941406596" r="12" fill="#bd1550" style="mix-blend-mode: multiply;"/><circle cx="12.499999999999451" cy="233.68579414065957" r="12" fill="seagreen" style="mix-blend-mode: multiply;"/></g><g fill="white" transform="translate(0.5,0.5)"><text dy="0.32em" x="12.499999999996191" y="261.9047417186809">AT</text><text dy="0.32em" x="12.5" y="134.64557">ES</text><text dy="0.32em" x="12.5" y="197.43484166666664">GB</text><text dy="0.32em" x="12.500000000004357" y="245.6857941406596">IT</text><text dy="0.32em" x="12.499999999999451" y="233.68579414065957">TR</text></g></g><g transform="translate(152,0)"><g transform="translate(0.5,0.5)"><circle cx="12.500000000022826" cy="298.9229285771934" r="12" fill="#bd1550" style="mix-blend-mode: multiply;"/><circle cx="12.4999999999138" cy="338.46496047217295" r="12" fill="#bd1550" style="mix-blend-mode: multiply;"/><circle cx="12.499999999884539" cy="311.73121760322266" r="12" fill="#bd1550" style="mix-blend-mode: multiply;"/><circle cx="12.500000000009628" cy="352.6660487653861" r="12" fill="#bd1550" style="mix-blend-mode: multiply;"/><circle cx="12.500000000169209" cy="324.6679329153584" r="12" fill="#bd1550" style="mix-blend-mode: multiply;"/></g><g fill="white" transform="translate(0.5,0.5)"><text dy="0.32em" x="12.500000000022826" y="298.9229285771934">ES</text><text dy="0.32em" x="12.4999999999138" y="338.46496047217295">GB</text><text dy="0.32em" x="12.499999999884539" y="311.73121760322266">IT</text><text dy="0.32em" x="12.500000000009628" y="352.6660487653861">PL</text><text dy="0.32em" x="12.500000000169209" y="324.6679329153584">RO</text></g></g><g transform="translate(180,0)"><g transform="translate(0.5,0.5)"><circle cx="12.5" cy="278.3408666666666" r="12" fill="#bd1550" style="mix-blend-mode: multiply;"/><circle cx="12.499999999995293" cy="341.1321635154923" r="12" fill="#bd1550" style="mix-blend-mode: multiply;"/><circle cx="12.49999999999473" cy="326.47252791664" r="12" fill="#bd1550" style="mix-blend-mode: multiply;"/><circle cx="12.499999999992584" cy="299.01262928393396" r="12" fill="#bd1550" style="mix-blend-mode: multiply;"/><circle cx="12.500000000017394" cy="311.012629283934" r="12" fill="#bd1550" style="mix-blend-mode: multiply;"/></g><g fill="white" transform="translate(0.5,0.5)"><text dy="0.32em" x="12.5" y="278.3408666666666">ES</text><text dy="0.32em" x="12.499999999995293" y="341.1321635154923">GB</text><text dy="0.32em" x="12.49999999999473" y="326.47252791664">GR</text><text dy="0.32em" x="12.499999999992584" y="299.01262928393396">IT</text><text dy="0.32em" x="12.500000000017394" y="311.012629283934">RO</text></g></g><g transform="translate(208,0)"><g transform="translate(0.5,0.5)"><circle cx="12.499999999992538" cy="297.9404131042935" r="12" fill="#bd1550" style="mix-blend-mode: multiply;"/><circle cx="12.500000000019732" cy="311.4904978854793" r="12" fill="#bd1550" style="mix-blend-mode: multiply;"/><circle cx="12.500000000009061" cy="343.19986867172713" r="12" fill="#bd1550" style="mix-blend-mode: multiply;"/><circle cx="12.49999999997867" cy="326.95617533849986" r="12" fill="#bd1550" style="mix-blend-mode: multiply;"/><circle cx="12.5" cy="266.33219833333334" r="12" fill="seagreen" style="mix-blend-mode: multiply;"/></g><g fill="white" transform="translate(0.5,0.5)"><text dy="0.32em" x="12.499999999992538" y="297.9404131042935">ES</text><text dy="0.32em" x="12.500000000019732" y="311.4904978854793">GR</text><text dy="0.32em" x="12.500000000009061" y="343.19986867172713">IT</text><text dy="0.32em" x="12.49999999997867" y="326.95617533849986">RO</text><text dy="0.32em" x="12.5" y="266.33219833333334">TR</text></g></g><g transform="translate(236,0)"><g transform="translate(0.5,0.5)"><circle cx="12.5" cy="170.977725" r="12" fill="#bd1550" style="mix-blend-mode: multiply;"/><circle cx="12.5" cy="303.245515" r="12" fill="#bd1550" style="mix-blend-mode: multiply;"/><circle cx="12.5" cy="245.68983833333334" r="12" fill="#bd1550" style="mix-blend-mode: multiply;"/><circle cx="12.5" cy="283.31174833333336" r="12" fill="#bd1550" style="mix-blend-mode: multiply;"/><circle cx="12.5" cy="225.79872333333333" r="12" fill="seagreen" style="mix-blend-mode: multiply;"/></g><g fill="white" transform="translate(0.5,0.5)"><text dy="0.32em" x="12.5" y="170.977725">ES</text><text dy="0.32em" x="12.5" y="303.245515">GB</text><text dy="0.32em" x="12.5" y="245.68983833333334">GR</text><text dy="0.32em" x="12.5" y="283.31174833333336">IT</text><text dy="0.32em" x="12.5" y="225.79872333333333">TR</text></g></g><g transform="translate(264,0)"><g transform="translate(0.5,0.5)"><circle cx="12.5" cy="112.983495" r="12" fill="#bd1550" style="mix-blend-mode: multiply;"/><circle cx="12.5" cy="286.99889333333334" r="12" fill="#bd1550" style="mix-blend-mode: multiply;"/><circle cx="12.499999999999943" cy="211.85762166666" r="12" fill="#bd1550" style="mix-blend-mode: multiply;"/><circle cx="12.5" cy="266.05535499999996" r="12" fill="#bd1550" style="mix-blend-mode: multiply;"/><circle cx="12.500000000000057" cy="199.30866166667332" r="12" fill="seagreen" style="mix-blend-mode: multiply;"/></g><g fill="white" transform="translate(0.5,0.5)"><text dy="0.32em" x="12.5" y="112.983495">ES</text><text dy="0.32em" x="12.5" y="286.99889333333334">GB</text><text dy="0.32em" x="12.499999999999943" y="211.85762166666">GR</text><text dy="0.32em" x="12.5" y="266.05535499999996">IT</text><text dy="0.32em" x="12.500000000000057" y="199.30866166667332">TR</text></g></g><g transform="translate(292,0)"><g transform="translate(0.5,0.5)"><circle cx="12.5" cy="192.996975" r="12" fill="#bd1550" style="mix-blend-mode: multiply;"/><circle cx="12.5" cy="285.62828333333334" r="12" fill="#bd1550" style="mix-blend-mode: multiply;"/><circle cx="12.5" cy="214.84483333333336" r="12" fill="#bd1550" style="mix-blend-mode: multiply;"/><circle cx="12.5" cy="266.8526533333333" r="12" fill="#bd1550" style="mix-blend-mode: multiply;"/><circle cx="12.5" cy="228.06240166666666" r="12" fill="seagreen" style="mix-blend-mode: multiply;"/></g><g fill="white" transform="translate(0.5,0.5)"><text dy="0.32em" x="12.5" y="192.996975">ES</text><text dy="0.32em" x="12.5" y="285.62828333333334">GB</text><text dy="0.32em" x="12.5" y="214.84483333333336">GR</text><text dy="0.32em" x="12.5" y="266.8526533333333">IT</text><text dy="0.32em" x="12.5" y="228.06240166666666">TR</text></g></g><g transform="translate(320,0)"><g transform="translate(0.5,0.5)"><circle cx="12.499999999965516" cy="228.6553305416328" r="12" fill="#bd1550" style="mix-blend-mode: multiply;"/><circle cx="12.500000000000004" cy="280.97059166665383" r="12" fill="#bd1550" style="mix-blend-mode: multiply;"/><circle cx="12.500000000023864" cy="212.19885468759705" r="12" fill="#bd1550" style="mix-blend-mode: multiply;"/><circle cx="12.499999999999996" cy="267.9192316666795" r="12" fill="#bd1550" style="mix-blend-mode: multiply;"/><circle cx="12.50000000001062" cy="241.2812914374369" r="12" fill="seagreen" style="mix-blend-mode: multiply;"/></g><g fill="white" transform="translate(0.5,0.5)"><text dy="0.32em" x="12.499999999965516" y="228.6553305416328">ES</text><text dy="0.32em" x="12.500000000000004" y="280.97059166665383">GB</text><text dy="0.32em" x="12.500000000023864" y="212.19885468759705">GR</text><text dy="0.32em" x="12.499999999999996" y="267.9192316666795">IT</text><text dy="0.32em" x="12.50000000001062" y="241.2812914374369">TR</text></g></g><g transform="translate(348,0)"><g transform="translate(0.5,0.5)"><circle cx="12.5" cy="274.6013883333333" r="12" fill="#bd1550" style="mix-blend-mode: multiply;"/><circle cx="12.499999999845665" cy="313.5383526432187" r="12" fill="#bd1550" style="mix-blend-mode: multiply;"/><circle cx="12.500000000094769" cy="328.79646895814057" r="12" fill="#bd1550" style="mix-blend-mode: multiply;"/><circle cx="12.499999999992301" cy="289.22482419932027" r="12" fill="seagreen" style="mix-blend-mode: multiply;"/><circle cx="12.500000000067264" cy="301.22482419932027" r="12" fill="dodgerblue" style="mix-blend-mode: multiply;"/></g><g fill="white" transform="translate(0.5,0.5)"><text dy="0.32em" x="12.5" y="274.6013883333333">ES</text><text dy="0.32em" x="12.499999999845665" y="313.5383526432187">GB</text><text dy="0.32em" x="12.500000000094769" y="328.79646895814057">IT</text><text dy="0.32em" x="12.499999999992301" y="289.22482419932027">TR</text><text dy="0.32em" x="12.500000000067264" y="301.22482419932027">US</text></g></g><g transform="translate(376,0)"><g transform="translate(0.5,0.5)"><circle cx="12.5" cy="273.7057033333333" r="12" fill="#bd1550" style="mix-blend-mode: multiply;"/><circle cx="12.499999999994861" cy="314.43164812502494" r="12" fill="#bd1550" style="mix-blend-mode: multiply;"/><circle cx="12.500000000003919" cy="330.35338562492564" r="12" fill="#bd1550" style="mix-blend-mode: multiply;"/><circle cx="12.499999999999991" cy="290.4316481250249" r="12" fill="seagreen" style="mix-blend-mode: multiply;"/><circle cx="12.500000000001231" cy="302.4316481250249" r="12" fill="dodgerblue" style="mix-blend-mode: multiply;"/></g><g fill="white" transform="translate(0.5,0.5)"><text dy="0.32em" x="12.5" y="273.7057033333333">ES</text><text dy="0.32em" x="12.499999999994861" y="314.43164812502494">GB</text><text dy="0.32em" x="12.500000000003919" y="330.35338562492564">PT</text><text dy="0.32em" x="12.499999999999991" y="290.4316481250249">TR</text><text dy="0.32em" x="12.500000000001231" y="302.4316481250249">US</text></g></g><g transform="translate(404,0)"><g transform="translate(0.5,0.5)"><circle cx="12.499999999996897" cy="317.6274729186189" r="12" fill="seagreen" style="mix-blend-mode: multiply;"/><circle cx="12.5" cy="281.62747166087144" r="12" fill="#bd1550" style="mix-blend-mode: multiply;"/><circle cx="12.50000000000302" cy="333.48964291660553" r="12" fill="#bd1550" style="mix-blend-mode: multiply;"/><circle cx="12.499999999999956" cy="293.62747291861876" r="12" fill="seagreen" style="mix-blend-mode: multiply;"/><circle cx="12.500000000000128" cy="305.6274729186188" r="12" fill="dodgerblue" style="mix-blend-mode: multiply;"/></g><g fill="white" transform="translate(0.5,0.5)"><text dy="0.32em" x="12.499999999996897" y="317.6274729186189">AE</text><text dy="0.32em" x="12.5" y="281.62747166087144">ES</text><text dy="0.32em" x="12.50000000000302" y="333.48964291660553">PT</text><text dy="0.32em" x="12.499999999999956" y="293.62747291861876">TR</text><text dy="0.32em" x="12.500000000000128" y="305.6274729186188">US</text></g></g><g transform="translate(432,0)"><g transform="translate(0.5,0.5)"><circle cx="12.500000000003306" cy="327.3540056825891" r="12" fill="seagreen" style="mix-blend-mode: multiply;"/><circle cx="12.499999999995529" cy="288.2350722917828" r="12" fill="#bd1550" style="mix-blend-mode: multiply;"/><circle cx="12.500000000001533" cy="340.304113648736" r="12" fill="#bd1550" style="mix-blend-mode: multiply;"/><circle cx="12.500000000013975" cy="302.4545838528847" r="12" fill="seagreen" style="mix-blend-mode: multiply;"/><circle cx="12.499999999985656" cy="315.1751178573409" r="12" fill="dodgerblue" style="mix-blend-mode: multiply;"/></g><g fill="white" transform="translate(0.5,0.5)"><text dy="0.32em" x="12.500000000003306" y="327.3540056825891">AE</text><text dy="0.32em" x="12.499999999995529" y="288.2350722917828">ES</text><text dy="0.32em" x="12.500000000001533" y="340.304113648736">NL</text><text dy="0.32em" x="12.500000000013975" y="302.4545838528847">TR</text><text dy="0.32em" x="12.499999999985656" y="315.1751178573409">US</text></g></g><g transform="translate(460,0)"><g transform="translate(0.5,0.5)"><circle cx="12.49999999999744" cy="316.7322325000595" r="12" fill="seagreen" style="mix-blend-mode: multiply;"/><circle cx="12.499999999999744" cy="276.8489991667008" r="12" fill="#bd1550" style="mix-blend-mode: multiply;"/><circle cx="12.50000000000256" cy="333.62616749994044" r="12" fill="#bd1550" style="mix-blend-mode: multiply;"/><circle cx="12.500000000000256" cy="291.6804774999659" r="12" fill="seagreen" style="mix-blend-mode: multiply;"/><circle cx="12.5" cy="304.21080333333333" r="12" fill="dodgerblue" style="mix-blend-mode: multiply;"/></g><g fill="white" transform="translate(0.5,0.5)"><text dy="0.32em" x="12.49999999999744" y="316.7322325000595">AE</text><text dy="0.32em" x="12.499999999999744" y="276.8489991667008">ES</text><text dy="0.32em" x="12.50000000000256" y="333.62616749994044">IT</text><text dy="0.32em" x="12.500000000000256" y="291.6804774999659">TR</text><text dy="0.32em" x="12.5" y="304.21080333333333">US</text></g></g><g transform="translate(488,0)"><g transform="translate(0.5,0.5)"><circle cx="12.499999999998922" cy="327.98844578120134" r="12" fill="seagreen" style="mix-blend-mode: multiply;"/><circle cx="12.5" cy="243.61115833333332" r="12" fill="#bd1550" style="mix-blend-mode: multiply;"/><circle cx="12.500000000001144" cy="312.9843429427327" r="12" fill="#bd1550" style="mix-blend-mode: multiply;"/><circle cx="12.5" cy="271.303865" r="12" fill="seagreen" style="mix-blend-mode: multiply;"/><circle cx="12.499999999999936" cy="300.98434294273267" r="12" fill="dodgerblue" style="mix-blend-mode: multiply;"/></g><g fill="white" transform="translate(0.5,0.5)"><text dy="0.32em" x="12.499999999998922" y="327.98844578120134">AE</text><text dy="0.32em" x="12.5" y="243.61115833333332">ES</text><text dy="0.32em" x="12.500000000001144" y="312.9843429427327">IT</text><text dy="0.32em" x="12.5" y="271.303865">TR</text><text dy="0.32em" x="12.499999999999936" y="300.98434294273267">US</text></g></g><g transform="translate(516,0)"><g transform="translate(0.5,0.5)"><circle cx="12.5" cy="208.89924333333335" r="12" fill="#bd1550" style="mix-blend-mode: multiply;"/><circle cx="12.49999999999288" cy="284.90042062503375" r="12" fill="#bd1550" style="mix-blend-mode: multiply;"/><circle cx="12.5" cy="315.5956583333333" r="12" fill="#bd1550" style="mix-blend-mode: multiply;"/><circle cx="12.500000000000096" cy="272.9004206250337" r="12" fill="seagreen" style="mix-blend-mode: multiply;"/><circle cx="12.500000000007025" cy="302.13085541659916" r="12" fill="dodgerblue" style="mix-blend-mode: multiply;"/></g><g fill="white" transform="translate(0.5,0.5)"><text dy="0.32em" x="12.5" y="208.89924333333335">ES</text><text dy="0.32em" x="12.49999999999288" y="284.90042062503375">GR</text><text dy="0.32em" x="12.5" y="315.5956583333333">IT</text><text dy="0.32em" x="12.500000000000096" y="272.9004206250337">TR</text><text dy="0.32em" x="12.500000000007025" y="302.13085541659916">US</text></g></g><g transform="translate(544,0)"><g transform="translate(0.5,0.5)"><circle cx="12.5" cy="147.592575" r="12" fill="#bd1550" style="mix-blend-mode: multiply;"/><circle cx="12.5" cy="240.00513000000004" r="12" fill="#bd1550" style="mix-blend-mode: multiply;"/><circle cx="12.499999999999647" cy="275.44581166669406" r="12" fill="#bd1550" style="mix-blend-mode: multiply;"/><circle cx="12.5" cy="224.89963666666668" r="12" fill="seagreen" style="mix-blend-mode: multiply;"/><circle cx="12.500000000000353" cy="289.72229499997263" r="12" fill="dodgerblue" style="mix-blend-mode: multiply;"/></g><g fill="white" transform="translate(0.5,0.5)"><text dy="0.32em" x="12.5" y="147.592575">ES</text><text dy="0.32em" x="12.5" y="240.00513000000004">GR</text><text dy="0.32em" x="12.499999999999647" y="275.44581166669406">IT</text><text dy="0.32em" x="12.5" y="224.89963666666668">TR</text><text dy="0.32em" x="12.500000000000353" y="289.72229499997263">US</text></g></g><g transform="translate(572,0)"><g transform="translate(0.5,0.5)"><circle cx="12.5" cy="38.92057666666667" r="12" fill="#bd1550" style="mix-blend-mode: multiply;"/><circle cx="12.5" cy="156.838305" r="12" fill="#bd1550" style="mix-blend-mode: multiply;"/><circle cx="12.5" cy="226.45864666666665" r="12" fill="#bd1550" style="mix-blend-mode: multiply;"/><circle cx="12.5" cy="87.46340666666669" r="12" fill="seagreen" style="mix-blend-mode: multiply;"/><circle cx="12.5" cy="273.41211333333337" r="12" fill="dodgerblue" style="mix-blend-mode: multiply;"/></g><g fill="white" transform="translate(0.5,0.5)"><text dy="0.32em" x="12.5" y="38.92057666666667">ES</text><text dy="0.32em" x="12.5" y="156.838305">GR</text><text dy="0.32em" x="12.5" y="226.45864666666665">IT</text><text dy="0.32em" x="12.5" y="87.46340666666669">TR</text><text dy="0.32em" x="12.5" y="273.41211333333337">US</text></g></g><g transform="translate(600,0)"><g transform="translate(0.5,0.5)"><circle cx="12.499999999996586" cy="56.72173499993773" r="12" fill="#bd1550" style="mix-blend-mode: multiply;"/><circle cx="12.5" cy="134.23710833333334" r="12" fill="#bd1550" style="mix-blend-mode: multiply;"/><circle cx="12.5" cy="217.702495" r="12" fill="#bd1550" style="mix-blend-mode: multiply;"/><circle cx="12.500000000003414" cy="39.59099166672895" r="12" fill="seagreen" style="mix-blend-mode: multiply;"/><circle cx="12.5" cy="263.83642166666664" r="12" fill="dodgerblue" style="mix-blend-mode: multiply;"/></g><g fill="white" transform="translate(0.5,0.5)"><text dy="0.32em" x="12.499999999996586" y="56.72173499993773">ES</text><text dy="0.32em" x="12.5" y="134.23710833333334">GR</text><text dy="0.32em" x="12.5" y="217.702495">IT</text><text dy="0.32em" x="12.500000000003414" y="39.59099166672895">TR</text><text dy="0.32em" x="12.5" y="263.83642166666664">US</text></g></g></g></svg>