<svg class="plot" fill="currentColor" text-anchor="middle" width="648" height="360" viewBox="0 0 648 360" xmlns="http://www.w3.org/2000/svg" xmlns:xlink="http://www.w3.org/1999/xlink"><g transform="translate(40,0)" fill="none" text-anchor="end"><g class="tick" opacity="1" transform="translate(0,330)"><line stroke="currentColor" x2="0"/><text fill="currentColor" x="-8" dy="0.32em"/></g><g class="tick" opacity="1" transform="translate(0,303.1755627230452)"><line stroke="currentColor" x2="0"/><text fill="currentColor" x="-8" dy="0.32em">1M</text></g><g class="tick" opacity="1" transform="translate(0,276.3511254460904)"><line stroke="currentColor" x2="0"/><text fill="currentColor" x="-8" dy="0.32em">2M</text></g><g class="tick" opacity="1" transform="translate(0,249.52668816913558)"><line stroke="currentColor" x2="0"/><text fill="currentColor" x="-8" dy="0.32em">3M</text></g><g class="tick" opacity="1" transform="translate(0,222.70225089218079)"><line stroke="currentColor" x2="0"/><text fill="currentColor" x="-8" dy="0.32em">4M</text></g><g class="tick" opacity="1" transform="translate(0,195.87781361522596)"><line stroke="currentColor" x2="0"/><text fill="currentColor" x="-8" dy="0.32em">5M</text></g><g class="tick" opacity="1" transform="translate(0,169.05337633827116)"><line stroke="currentColor" x2="0"/><text fill="currentColor" x="-8" dy="0.32em">6M</text></g><g class="tick" opacity="1" transform="translate(0,142.22893906131637)"><line stroke="currentColor" x2="0"/><text fill="currentColor" x="-8" dy="0.32em">7M</text></g><g class="tick" opacity="1" transform="translate(0,115.40450178436157)"><line stroke="currentColor" x2="0"/><text fill="currentColor" x="-8" dy="0.32em">8M</text></g><g class="tick" opacity="1" transform="translate(0,88.58006450740676)"><line stroke="currentColor" x2="0"/><text fill="currentColor" x="-8" dy="0.32em">9M</text></g><g class="tick" opacity="1" transform="translate(0,61.75562723045195)"><line stroke="currentColor" x2="0"/><text fill="currentColor" x="-8" dy="0.32em">10M</text></g><g class="tick" opacity="1" transform="translate(0,34.93118995349716)"><line stroke="currentColor" x2="0"/><text fill="currentColor" x="-8" dy="0.32em">11M</text></g><text fill="currentColor" transform="translate(-40,30)" dy="-1em" text-anchor="start"> ↑ Seats</text></g><g transform="translate(0,330)" fill="none" text-anchor="middle"><g class="tick" opacity="1" transform="translate(40,0)"><line stroke="currentColor" y2="6"/><text fill="currentColor" y="10" dy="0.71em">Jan / 20</text></g><g class="tick" opacity="1" transform="translate(132.57439446366783,0)"><line stroke="currentColor" y2="6"/><text fill="currentColor" y="10" dy="0.71em">Apr</text></g><g class="tick" opacity="1" transform="translate(225.14878892733566,0)"><line stroke="currentColor" y2="6"/><text fill="currentColor" y="10" dy="0.71em">Jul</text></g><g class="tick" opacity="1" transform="translate(318.74048442906576,0)"><line stroke="currentColor" y2="6"/><text fill="currentColor" y="10" dy="0.71em">Oct</text></g><g class="tick" opacity="1" transform="translate(412.33217993079586,0)"><line stroke="currentColor" y2="6"/><text fill="currentColor" y="10" dy="0.71em">Jan / 21</text></g><g class="tick" opacity="1" transform="translate(503.88927335640136,0)"><line stroke="currentColor" y2="6"/><text fill="currentColor" y="10" dy="0.71em">Apr</text></g><g class="tick" opacity="1" transform="translate(596.4636678200692,0)"><line stroke="currentColor" y2="6"/><text fill="currentColor" y="10" dy="0.71em">Jul</text></g></g><g stroke-miterlimit="1"><path fill="#490a3d" stroke="#490a3d" d="M40,259.110040279575L71.53633217993081,260.08194329099365L101.03806228373702,280.71084758783934L132.57439446366783,324.83023350136165L163.09342560553634,325.8093522864077L194.62975778546712,321.4792711478499L225.14878892733566,310.95580298416496L256.6851211072664,309.1784962435058L288.2214532871972,304.83371531332017L318.74048442906576,307.21779082518407L350.2768166089965,316.15904638052507L380.79584775086505,318.3643101935008L412.33217993079586,320.5147716811197L443.8685121107266,322.9926522501411L472.3529411764706,321.1512082799527L503.88927335640136,319.0797715845517L534.4083044982699,317.9249795597788L565.9446366782008,315.1055434309099L596.4636678200692,309.90914026605554L628,309.8322614288198L628,330L596.4636678200692,330L565.9446366782008,330L534.4083044982699,330L503.88927335640136,330L472.3529411764706,330L443.8685121107266,330L412.33217993079586,330L380.79584775086505,330L350.2768166089965,330L318.74048442906576,330L288.2214532871972,330L256.6851211072664,330L225.14878892733566,330L194.62975778546712,330L163.09342560553634,330L132.57439446366783,330L101.03806228373702,330L71.53633217993081,330L40,330Z"/><path fill="#bd1550" stroke="#bd1550" d="M40,30L71.53633217993081,39.00356872313532L101.03806228373702,104.76448144070835L132.57439446366783,302.7361247915741L163.09342560553634,291.2456893129296L194.62975778546712,281.9836939610681L225.14878892733566,217.24806488509486L256.6851211072664,187.1486320609966L288.2214532871972,198.82501453884504L318.74048442906576,210.54222381022893L350.2768166089965,265.7315453236422L380.79584775086505,269.5093649475421L412.33217993079586,276.13349878646244L443.8685121107266,291.90597283650186L472.3529411764706,279.09354861553714L503.88927335640136,262.4763730356465L534.4083044982699,249.81059801327487L565.9446366782008,213.8782449521774L596.4636678200692,141.9186071464593L628,125.05596114104718L628,309.8322614288198L596.4636678200692,309.90914026605554L565.9446366782008,315.1055434309099L534.4083044982699,317.9249795597788L503.88927335640136,319.0797715845517L472.3529411764706,321.1512082799527L443.8685121107266,322.9926522501411L412.33217993079586,320.5147716811197L380.79584775086505,318.3643101935008L350.2768166089965,316.15904638052507L318.74048442906576,307.21779082518407L288.2214532871972,304.83371531332017L256.6851211072664,309.1784962435058L225.14878892733566,310.95580298416496L194.62975778546712,321.4792711478499L163.09342560553634,325.8093522864077L132.57439446366783,324.83023350136165L101.03806228373702,280.71084758783934L71.53633217993081,260.08194329099365L40,259.110040279575Z"/></g></svg>