<svg class="plot" fill="currentColor" text-anchor="middle" width="648" height="260" viewBox="0 0 648 260" xmlns="http://www.w3.org/2000/svg" xmlns:xlink="http://www.w3.org/1999/xlink"><g transform="translate(40,0)" fill="none" text-anchor="end"><g class="tick" opacity="1" transform="translate(0,230)"><line stroke="currentColor" x2="0"/><text fill="currentColor" x="-8" dy="0.32em"/></g><g class="tick" opacity="1" transform="translate(0,188.5075183391323)"><line stroke="currentColor" x2="0"/><text fill="currentColor" x="-8" dy="0.32em">20M</text></g><g class="tick" opacity="1" transform="translate(0,147.0150366782646)"><line stroke="currentColor" x2="0"/><text fill="currentColor" x="-8" dy="0.32em">40M</text></g><g class="tick" opacity="1" transform="translate(0,105.5225550173969)"><line stroke="currentColor" x2="0"/><text fill="currentColor" x="-8" dy="0.32em">60M</text></g><g class="tick" opacity="1" transform="translate(0,64.03007335652921)"><line stroke="currentColor" x2="0"/><text fill="currentColor" x="-8" dy="0.32em">80M</text></g><text fill="currentColor" transform="translate(-40,30)" dy="-1em" text-anchor="start"> ↑ Seats</text></g><g transform="translate(0,30)" fill="none" text-anchor="middle"><g class="tick" opacity="1" transform="translate(179,0)"><line stroke="currentColor" y2="0"/><text fill="currentColor" y="-9" dy="0em">China</text></g><g class="tick" opacity="1" transform="translate(488,0)"><line stroke="currentColor" y2="0"/><text fill="currentColor" y="-9" dy="0em">USA</text></g></g><g><g transform="translate(40,0)"><g transform="translate(0,230)" fill="none" text-anchor="middle"><g class="tick" opacity="1" transform="translate(0,0)"><line stroke="currentColor" y2="6"/><text fill="currentColor" y="10" dy="0.71em">Jan / 20</text></g><g class="tick" opacity="1" transform="translate(43.7681660899654,0)"><line stroke="currentColor" y2="6"/><text fill="currentColor" y="10" dy="0.71em">Apr</text></g><g class="tick" opacity="1" transform="translate(87.5363321799308,0)"><line stroke="currentColor" y2="6"/><text fill="currentColor" y="10" dy="0.71em">Jul</text></g><g class="tick" opacity="1" transform="translate(131.78546712802768,0)"><line stroke="currentColor" y2="6"/><text fill="currentColor" y="10" dy="0.71em">Oct</text></g><g class="tick" opacity="1" transform="translate(176.03460207612457,0)"><line stroke="currentColor" y2="6"/><text fill="currentColor" y="10" dy="0.71em">Jan / 21</text></g><g class="tick" opacity="1" transform="translate(219.32179930795849,0)"><line stroke="currentColor" y2="6"/><text fill="currentColor" y="10" dy="0.71em">Apr</text></g><g class="tick" opacity="1" transform="translate(263.0899653979239,0)"><line stroke="currentColor" y2="6"/><text fill="currentColor" y="10" dy="0.71em">Jul</text></g></g></g><g transform="translate(349,0)"><g transform="translate(0,230)" fill="none" text-anchor="middle"><g class="tick" opacity="1" transform="translate(0,0)"><line stroke="currentColor" y2="6"/><text fill="currentColor" y="10" dy="0.71em">Jan / 20</text></g><g class="tick" opacity="1" transform="translate(43.7681660899654,0)"><line stroke="currentColor" y2="6"/><text fill="currentColor" y="10" dy="0.71em">Apr</text></g><g class="tick" opacity="1" transform="translate(87.5363321799308,0)"><line stroke="currentColor" y2="6"/><text fill="currentColor" y="10" dy="0.71em">Jul</text></g><g class="tick" opacity="1" transform="translate(131.78546712802768,0)"><line stroke="currentColor" y2="6"/><text fill="currentColor" y="10" dy="0.71em">Oct</text></g><g class="tick" opacity="1" transform="translate(176.03460207612457,0)"><line stroke="currentColor" y2="6"/><text fill="currentColor" y="10" dy="0.71em">Jan / 21</text></g><g class="tick" opacity="1" transform="translate(219.32179930795849,0)"><line stroke="currentColor" y2="6"/><text fill="currentColor" y="10" dy="0.71em">Apr</text></g><g class="tick" opacity="1" transform="translate(263.0899653979239,0)"><line stroke="currentColor" y2="6"/><text fill="currentColor" y="10" dy="0.71em">Jul</text></g></g></g><g transform="translate(40,0)"><g stroke-miterlimit="1"><path fill="#490a3d" stroke="#490a3d" d="M0,95.03531575524401L14.910034602076125,169.8664794761018L28.85813148788927,151.43497349621055L43.7681660899654,155.7377583668111L58.19723183391003,132.68469115283924L73.10726643598615,121.31603747588495L87.5363321799308,102.87462724062124L102.44636678200692,89.85537982233272L117.35640138408304,93.0459379757729L131.78546712802768,85.32754388045177L146.6955017301038,95.7339308928403L161.12456747404843,92.23352555797352L176.03460207612457,99.33878732641608L190.94463667820068,131.84568412891934L204.41176470588238,83.25196754495427L219.32179930795849,84.09248074595848L233.7508650519031,74.90933151078991L248.66089965397924,89.01225259498389L263.0899653979239,67.03860814217133L278,110.80612879637664L278,230L263.0899653979239,230L248.66089965397924,230L233.7508650519031,230L219.32179930795849,230L204.41176470588238,230L190.94463667820068,230L176.03460207612457,230L161.12456747404843,230L146.6955017301038,230L131.78546712802768,230L117.35640138408304,230L102.44636678200692,230L87.5363321799308,230L73.10726643598615,230L58.19723183391003,230L43.7681660899654,230L28.85813148788927,230L14.910034602076125,230L0,230Z"/><path fill="#bd1550" stroke="#bd1550" d="M0,75.6100980335603L14.910034602076125,162.07851493677992L28.85813148788927,147.97388021309337L43.7681660899654,154.47195760190343L58.19723183391003,130.92141420443454L73.10726643598615,120.05962438495305L87.5363321799308,101.101894155646L102.44636678200692,87.95861533655273L117.35640138408304,91.15824374648398L131.78546712802768,83.60506234001602L146.6955017301038,94.41662758507107L161.12456747404843,90.90968303509455L176.03460207612457,97.97847913602943L190.94463667820068,130.8646483402743L204.41176470588238,81.98612321294085L219.32179930795849,82.8037782057981L233.7508650519031,73.63995824321123L248.66089965397924,87.86241916707019L263.0899653979239,65.85071573545417L278,109.7777438622843L278,110.80612879637664L263.0899653979239,67.03860814217133L248.66089965397924,89.01225259498389L233.7508650519031,74.90933151078991L219.32179930795849,84.09248074595848L204.41176470588238,83.25196754495427L190.94463667820068,131.84568412891934L176.03460207612457,99.33878732641608L161.12456747404843,92.23352555797352L146.6955017301038,95.7339308928403L131.78546712802768,85.32754388045177L117.35640138408304,93.0459379757729L102.44636678200692,89.85537982233272L87.5363321799308,102.87462724062124L73.10726643598615,121.31603747588495L58.19723183391003,132.68469115283924L43.7681660899654,155.7377583668111L28.85813148788927,151.43497349621055L14.910034602076125,169.8664794761018L0,95.03531575524401Z"/></g></g><g transform="translate(349,0)"><g stroke-miterlimit="1"><path fill="#490a3d" stroke="#490a3d" d="M0,63.0789598710339L14.910034602076125,72.19327515375117L28.85813148788927,51.59582221330503L43.7681660899654,144.98368717896943L58.19723183391003,182.9182528507643L73.10726643598615,168.81122401088587L87.5363321799308,133.54237809200288L102.44636678200692,126.55047793270597L117.35640138408304,142.40686714264004L131.78546712802768,133.62681529218276L146.6955017301038,129.45067377410749L161.12456747404843,128.17018674531596L176.03460207612457,133.5071281542079L190.94463667820068,140.40849171852076L204.41176470588238,108.70997633922352L219.32179930795849,106.79958987171426L233.7508650519031,94.53599730556122L248.66089965397924,79.61848544828067L263.0899653979239,68.03530941726746L278,68.68685755829173L278,230L263.0899653979239,230L248.66089965397924,230L233.7508650519031,230L219.32179930795849,230L204.41176470588238,230L190.94463667820068,230L176.03460207612457,230L161.12456747404843,230L146.6955017301038,230L131.78546712802768,230L117.35640138408304,230L102.44636678200692,230L87.5363321799308,230L73.10726643598615,230L58.19723183391003,230L43.7681660899654,230L28.85813148788927,230L14.910034602076125,230L0,230Z"/><path fill="#bd1550" stroke="#bd1550" d="M0,37.442807256001885L14.910034602076125,49.179611274988545L28.85813148788927,30L43.7681660899654,141.69579388742508L58.19723183391003,180.77251272877828L73.10726643598615,165.8753487845042L87.5363321799308,127.88856689916321L102.44636678200692,120.12334853828781L117.35640138408304,136.11186225757461L131.78546712802768,125.88120835276435L146.6955017301038,120.42386820983705L161.12456747404843,116.89248873741045L176.03460207612457,121.99023428802383L190.94463667820068,130.52241627691137L204.41176470588238,97.2719804269176L219.32179930795849,95.0759389694141L233.7508650519031,81.2943086930888L248.66089965397924,64.81912135790537L263.0899653979239,51.21737136270035L278,51.55939181440678L278,68.68685755829173L263.0899653979239,68.03530941726746L248.66089965397924,79.61848544828067L233.7508650519031,94.53599730556122L219.32179930795849,106.79958987171426L204.41176470588238,108.70997633922352L190.94463667820068,140.40849171852076L176.03460207612457,133.5071281542079L161.12456747404843,128.17018674531596L146.6955017301038,129.45067377410749L131.78546712802768,133.62681529218276L117.35640138408304,142.40686714264004L102.44636678200692,126.55047793270597L87.5363321799308,133.54237809200288L73.10726643598615,168.81122401088587L58.19723183391003,182.9182528507643L43.7681660899654,144.98368717896943L28.85813148788927,51.59582221330503L14.910034602076125,72.19327515375117L0,63.0789598710339Z"/></g></g></g></svg>