<svg class="plot" fill="currentColor" text-anchor="middle" width="650" height="400" viewBox="0 0 650 400" xmlns="http://www.w3.org/2000/svg" xmlns:xlink="http://www.w3.org/1999/xlink"><g transform="translate(50,0)" fill="none" text-anchor="end"><g class="tick" opacity="1" transform="translate(0,370)"><line stroke="currentColor" x2="-8"/><line stroke="currentColor" x2="550" stroke-opacity="0.1"/><text fill="currentColor" x="-12" dy="0.32em">0%</text></g><g class="tick" opacity="1" transform="translate(0,337)"><line stroke="currentColor" x2="-8"/><line stroke="currentColor" x2="550" stroke-opacity="0.1"/><text fill="currentColor" x="-12" dy="0.32em">10%</text></g><g class="tick" opacity="1" transform="translate(0,304)"><line stroke="currentColor" x2="-8"/><line stroke="currentColor" x2="550" stroke-opacity="0.1"/><text fill="currentColor" x="-12" dy="0.32em">20%</text></g><g class="tick" opacity="1" transform="translate(0,271)"><line stroke="currentColor" x2="-8"/><line stroke="currentColor" x2="550" stroke-opacity="0.1"/><text fill="currentColor" x="-12" dy="0.32em">30%</text></g><g class="tick" opacity="1" transform="translate(0,238)"><line stroke="currentColor" x2="-8"/><line stroke="currentColor" x2="550" stroke-opacity="0.1"/><text fill="currentColor" x="-12" dy="0.32em">40%</text></g><g class="tick" opacity="1" transform="translate(0,205)"><line stroke="currentColor" x2="-8"/><line stroke="currentColor" x2="550" stroke-opacity="0.1"/><text fill="currentColor" x="-12" dy="0.32em">50%</text></g><g class="tick" opacity="1" transform="translate(0,172)"><line stroke="currentColor" x2="-8"/><line stroke="currentColor" x2="550" stroke-opacity="0.1"/><text fill="currentColor" x="-12" dy="0.32em">60%</text></g><g class="tick" opacity="1" transform="translate(0,139)"><line stroke="currentColor" x2="-8"/><line stroke="currentColor" x2="550" stroke-opacity="0.1"/><text fill="currentColor" x="-12" dy="0.32em">70%</text></g><g class="tick" opacity="1" transform="translate(0,105.99999999999999)"><line stroke="currentColor" x2="-8"/><line stroke="currentColor" x2="550" stroke-opacity="0.1"/><text fill="currentColor" x="-12" dy="0.32em">80%</text></g><g class="tick" opacity="1" transform="translate(0,73)"><line stroke="currentColor" x2="-8"/><line stroke="currentColor" x2="550" stroke-opacity="0.1"/><text fill="currentColor" x="-12" dy="0.32em">90%</text></g><g class="tick" opacity="1" transform="translate(0,40)"><line stroke="currentColor" x2="-8"/><line stroke="currentColor" x2="550" stroke-opacity="0.1"/><text fill="currentColor" x="-12" dy="0.32em">100%</text></g><text fill="currentColor" transform="translate(-50,40)" dy="-1em" text-anchor="start"> ↑ Seats Relative to Jan / 20</text></g><g transform="translate(0,370)" fill="none" text-anchor="middle"><g class="tick" opacity="1" transform="translate(50,0)"><line stroke="currentColor" y2="6"/><line stroke="currentColor" y2="-330" stroke-opacity="0.1"/><text fill="currentColor" y="9" dy="0.71em">Jan / 20</text></g><g class="tick" opacity="1" transform="translate(128.32550860719874,0)"><line stroke="currentColor" y2="6"/><line stroke="currentColor" y2="-330" stroke-opacity="0.1"/><text fill="currentColor" y="9" dy="0.71em">Apr</text></g><g class="tick" opacity="1" transform="translate(206.65101721439748,0)"><line stroke="currentColor" y2="6"/><line stroke="currentColor" y2="-330" stroke-opacity="0.1"/><text fill="currentColor" y="9" dy="0.71em">Jul</text></g><g class="tick" opacity="1" transform="translate(285.83724569640066,0)"><line stroke="currentColor" y2="6"/><line stroke="currentColor" y2="-330" stroke-opacity="0.1"/><text fill="currentColor" y="9" dy="0.71em">Oct</text></g><g class="tick" opacity="1" transform="translate(365.0234741784038,0)"><line stroke="currentColor" y2="6"/><line stroke="currentColor" y2="-330" stroke-opacity="0.1"/><text fill="currentColor" y="9" dy="0.71em">Jan / 21</text></g><g class="tick" opacity="1" transform="translate(442.4882629107981,0)"><line stroke="currentColor" y2="6"/><line stroke="currentColor" y2="-330" stroke-opacity="0.1"/><text fill="currentColor" y="9" dy="0.71em">Apr</text></g><g class="tick" opacity="1" transform="translate(520.8137715179969,0)"><line stroke="currentColor" y2="6"/><line stroke="currentColor" y2="-330" stroke-opacity="0.1"/><text fill="currentColor" y="9" dy="0.71em">Jul</text></g><g class="tick" opacity="1" transform="translate(600,0)"><line stroke="currentColor" y2="6"/><line stroke="currentColor" y2="-330" stroke-opacity="0.1"/><text fill="currentColor" y="9" dy="0.71em">Oct</text></g></g><g stroke="#666"><line x1="50" x2="600" y1="370" y2="370"/></g><g fill="none" stroke-width="2.5" stroke-miterlimit="1"><path stroke="#BBB" d="M50,40L76.68231611893583,226.35343597868956L101.64319248826291,207.7350448721315L128.32550860719874,224.18600528421743L154.1471048513302,178.5240728358703L180.82942097026603,158.96817334666574L206.65101721439748,121.94368334673104L233.33333333333334,96.89626712863804L260.0156494522692,102.80479260978841L285.83724569640066,88.73474483680604L312.51956181533643,110.02965351321811L338.34115805946794,103.3424684955447L365.0234741784038,116.5968411137763L391.7057902973396,179.87886179683855L415.8059467918623,86.45722064861424L442.4882629107981,87.94169033763887L468.3098591549296,70.53264549203342L494.9921752738654,97.79800871712865L520.8137715179969,55.91777556557818L547.4960876369328,139.60297362667646"/><path stroke="#666" d="M50,40L76.68231611893583,61.73319835104904L101.64319248826291,35.07528733654848L128.32550860719874,231.4938038087125L154.1471048513302,292.2826724077521L180.82942097026603,268.5995980326269L206.65101721439748,207.03604340529662L233.33333333333334,194.14012247943404L260.0156494522692,218.53119339885708L285.83724569640066,200.9010877468287L312.51956181533643,190.71244865139042L338.34115805946794,181.95060435190948L365.0234741784038,189.23740225531026L391.7057902973396,204.66659493352114L415.8059467918623,151.9817708128092L442.4882629107981,148.2518374163503L468.3098591549296,125.14639242092608L494.9921752738654,97.8368526449238L520.8137715179969,74.23123495090594L547.4960876369328,74.36124446385045"/><path stroke="#888" d="M50,40L76.68231611893583,46.31409506014313L101.64319248826291,85.98985972534936L128.32550860719874,330.44174667868884L154.1471048513302,302.4723903096899L180.82942097026603,321.938877509535L206.65101721439748,264.84333119787897L233.33333333333334,191.6811782600381L260.0156494522692,215.17208387954452L285.83724569640066,236.63783326221267L312.51956181533643,306.98554083527017L338.34115805946794,284.9361726055387L365.0234741784038,307.82936441030796L391.7057902973396,336.6428785649183L415.8059467918623,335.96634917836377L442.4882629107981,331.61982442011936L468.3098591549296,309.500446340643L494.9921752738654,278.3996967358283L520.8137715179969,224.99416936849568L547.4960876369328,173.27531558130642"/><path stroke="#bd1550" d="M50,40L76.68231611893583,50.818107140826996L101.64319248826291,120.01029321450345L128.32550860719874,339.60864607726546L154.1471048513302,324.38095259325473L180.82942097026603,315.6523624236926L206.65101721439748,241.62524674178243L233.33333333333334,205.17730298832026L260.0156494522692,221.81808707825408L285.83724569640066,235.68127482046782L312.51956181533643,298.4853704832739L338.34115805946794,301.69971232499586L365.0234741784038,308.6266834449221L391.7057902973396,326.9011628490191L415.8059467918623,311.9759293708265L442.4882629107981,292.6926536430846L468.3098591549296,277.4068455728032L494.9921752738654,234.54319193306233L520.8137715179969,147.8570942929782L547.4960876369328,127.45750356946611"/></g><g><circle cx="50" cy="40" r="4" fill="#BBB"/><circle cx="76.68231611893583" cy="226.35343597868956" r="4" fill="#BBB"/><circle cx="101.64319248826291" cy="207.7350448721315" r="4" fill="#BBB"/><circle cx="128.32550860719874" cy="224.18600528421743" r="4" fill="#BBB"/><circle cx="154.1471048513302" cy="178.5240728358703" r="4" fill="#BBB"/><circle cx="180.82942097026603" cy="158.96817334666574" r="4" fill="#BBB"/><circle cx="206.65101721439748" cy="121.94368334673104" r="4" fill="#BBB"/><circle cx="233.33333333333334" cy="96.89626712863804" r="4" fill="#BBB"/><circle cx="260.0156494522692" cy="102.80479260978841" r="4" fill="#BBB"/><circle cx="285.83724569640066" cy="88.73474483680604" r="4" fill="#BBB"/><circle cx="312.51956181533643" cy="110.02965351321811" r="4" fill="#BBB"/><circle cx="338.34115805946794" cy="103.3424684955447" r="4" fill="#BBB"/><circle cx="365.0234741784038" cy="116.5968411137763" r="4" fill="#BBB"/><circle cx="391.7057902973396" cy="179.87886179683855" r="4" fill="#BBB"/><circle cx="415.8059467918623" cy="86.45722064861424" r="4" fill="#BBB"/><circle cx="442.4882629107981" cy="87.94169033763887" r="4" fill="#BBB"/><circle cx="468.3098591549296" cy="70.53264549203342" r="4" fill="#BBB"/><circle cx="494.9921752738654" cy="97.79800871712865" r="4" fill="#BBB"/><circle cx="520.8137715179969" cy="55.91777556557818" r="4" fill="#BBB"/><circle cx="547.4960876369328" cy="139.60297362667646" r="4" fill="#BBB"/><circle cx="50" cy="40" r="4" fill="#666"/><circle cx="76.68231611893583" cy="61.73319835104904" r="4" fill="#666"/><circle cx="101.64319248826291" cy="35.07528733654848" r="4" fill="#666"/><circle cx="128.32550860719874" cy="231.4938038087125" r="4" fill="#666"/><circle cx="154.1471048513302" cy="292.2826724077521" r="4" fill="#666"/><circle cx="180.82942097026603" cy="268.5995980326269" r="4" fill="#666"/><circle cx="206.65101721439748" cy="207.03604340529662" r="4" fill="#666"/><circle cx="233.33333333333334" cy="194.14012247943404" r="4" fill="#666"/><circle cx="260.0156494522692" cy="218.53119339885708" r="4" fill="#666"/><circle cx="285.83724569640066" cy="200.9010877468287" r="4" fill="#666"/><circle cx="312.51956181533643" cy="190.71244865139042" r="4" fill="#666"/><circle cx="338.34115805946794" cy="181.95060435190948" r="4" fill="#666"/><circle cx="365.0234741784038" cy="189.23740225531026" r="4" fill="#666"/><circle cx="391.7057902973396" cy="204.66659493352114" r="4" fill="#666"/><circle cx="415.8059467918623" cy="151.9817708128092" r="4" fill="#666"/><circle cx="442.4882629107981" cy="148.2518374163503" r="4" fill="#666"/><circle cx="468.3098591549296" cy="125.14639242092608" r="4" fill="#666"/><circle cx="494.9921752738654" cy="97.8368526449238" r="4" fill="#666"/><circle cx="520.8137715179969" cy="74.23123495090594" r="4" fill="#666"/><circle cx="547.4960876369328" cy="74.36124446385045" r="4" fill="#666"/><circle cx="50" cy="40" r="4" fill="#888"/><circle cx="76.68231611893583" cy="46.31409506014313" r="4" fill="#888"/><circle cx="101.64319248826291" cy="85.98985972534936" r="4" fill="#888"/><circle cx="128.32550860719874" cy="330.44174667868884" r="4" fill="#888"/><circle cx="154.1471048513302" cy="302.4723903096899" r="4" fill="#888"/><circle cx="180.82942097026603" cy="321.938877509535" r="4" fill="#888"/><circle cx="206.65101721439748" cy="264.84333119787897" r="4" fill="#888"/><circle cx="233.33333333333334" cy="191.6811782600381" r="4" fill="#888"/><circle cx="260.0156494522692" cy="215.17208387954452" r="4" fill="#888"/><circle cx="285.83724569640066" cy="236.63783326221267" r="4" fill="#888"/><circle cx="312.51956181533643" cy="306.98554083527017" r="4" fill="#888"/><circle cx="338.34115805946794" cy="284.9361726055387" r="4" fill="#888"/><circle cx="365.0234741784038" cy="307.82936441030796" r="4" fill="#888"/><circle cx="391.7057902973396" cy="336.6428785649183" r="4" fill="#888"/><circle cx="415.8059467918623" cy="335.96634917836377" r="4" fill="#888"/><circle cx="442.4882629107981" cy="331.61982442011936" r="4" fill="#888"/><circle cx="468.3098591549296" cy="309.500446340643" r="4" fill="#888"/><circle cx="494.9921752738654" cy="278.3996967358283" r="4" fill="#888"/><circle cx="520.8137715179969" cy="224.99416936849568" r="4" fill="#888"/><circle cx="547.4960876369328" cy="173.27531558130642" r="4" fill="#888"/><circle cx="50" cy="40" r="4" fill="#bd1550"/><circle cx="76.68231611893583" cy="50.818107140826996" r="4" fill="#bd1550"/><circle cx="101.64319248826291" cy="120.01029321450345" r="4" fill="#bd1550"/><circle cx="128.32550860719874" cy="339.60864607726546" r="4" fill="#bd1550"/><circle cx="154.1471048513302" cy="324.38095259325473" r="4" fill="#bd1550"/><circle cx="180.82942097026603" cy="315.6523624236926" r="4" fill="#bd1550"/><circle cx="206.65101721439748" cy="241.62524674178243" r="4" fill="#bd1550"/><circle cx="233.33333333333334" cy="205.17730298832026" r="4" fill="#bd1550"/><circle cx="260.0156494522692" cy="221.81808707825408" r="4" fill="#bd1550"/><circle cx="285.83724569640066" cy="235.68127482046782" r="4" fill="#bd1550"/><circle cx="312.51956181533643" cy="298.4853704832739" r="4" fill="#bd1550"/><circle cx="338.34115805946794" cy="301.69971232499586" r="4" fill="#bd1550"/><circle cx="365.0234741784038" cy="308.6266834449221" r="4" fill="#bd1550"/><circle cx="391.7057902973396" cy="326.9011628490191" r="4" fill="#bd1550"/><circle cx="415.8059467918623" cy="311.9759293708265" r="4" fill="#bd1550"/><circle cx="442.4882629107981" cy="292.6926536430846" r="4" fill="#bd1550"/><circle cx="468.3098591549296" cy="277.4068455728032" r="4" fill="#bd1550"/><circle cx="494.9921752738654" cy="234.54319193306233" r="4" fill="#bd1550"/><circle cx="520.8137715179969" cy="147.8570942929782" r="4" fill="#bd1550"/><circle cx="547.4960876369328" cy="127.45750356946611" r="4" fill="#bd1550"/></g><g text-anchor="start"><text dx="5" dy="0.32em" x="547.4960876369328" y="139.60297362667646" font-size="NaN" fill="#BBB">China</text><text dx="5" dy="0.32em" x="547.4960876369328" y="127.45750356946611" font-size="NaN" fill="#bd1550">Germany</text><text dx="5" dy="0.32em" x="547.4960876369328" y="173.27531558130642" font-size="NaN" fill="#888">United Kingdom</text><text dx="5" dy="0.32em" x="547.4960876369328" y="74.36124446385045" font-size="NaN" fill="#666">USA</text></g></svg>